AUDIOCHECKER v2.0 beta (build 457) - by Dester - opdester@freemail.hu
~~~~~~~~~~~~~~~~~~~~~~~~~~~~~~~~~~
-=== DO NOT EDIT THIS FILE! ===-

Path: ...\Pink Floyd - A Foot in the Door The Best of Pink Floyd [FLAC]

01 -=- 01 - Hey You.flac -=- CDDA (100%)
02 -=- 02 - See Emily Play.flac -=- CDDA (100%)
03 -=- 03 - The Happiest Days Of Our Lives.flac -=- CDDA (100%)
04 -=- 04 - Another Brick In The Wall Part 2.flac -=- CDDA (100%)
05 -=- 05 - Have A Cigar.flac -=- CDDA (100%)
06 -=- 06 - Wish You Were Here.flac -=- CDDA (100%)
07 -=- 07 - Time.flac -=- CDDA (100%)
08 -=- 08 - The Great Gig In The Sky.flac -=- CDDA (100%)
09 -=- 09 - Money.flac -=- CDDA (100%)
10 -=- 10 - Comfortably Numb.flac -=- CDDA (100%)
11 -=- 11 - High Hopes.flac -=- CDDA (100%)
12 -=- 12 - Learning To Fly.flac -=- CDDA (100%)
13 -=- 13 - The Fletcher Memorial Home.flac -=- CDDA (100%)
14 -=- 14 - Shine On You Crazy Diamond.flac -=- CDDA (100%)
15 -=- 15 - Brain Damage.flac -=- CDDA (100%)
16 -=- 16 - Eclipse.flac -=- CDDA (99%)

Summary 99,94% CDDA

87405892
Exact Audio Copy V1.0 beta 2 from 29. April 2011

EAC extraction logfile from 10. November 2011, 14:57

Pink Floyd / A Foot In The Door

Used drive  : HL-DT-STDVDRAM GH15F   Adapter: 1  ID: 0

Read mode               : Secure
Utilize accurate stream : Yes
Defeat audio cache      : Yes
Make use of C2 pointers : No

Read offset correction                      : 667
Overread into Lead-In and Lead-Out          : No
Fill up missing offset samples with silence : Yes
Delete leading and trailing silent blocks   : No
Null samples used in CRC calculations       : Yes
Used interface                              : Native Win32 interface for Win NT & 2000
Gap handling                                : Appended to previous track

Used output format : Internal WAV Routines
Sample format      : 44.100 Hz; 16 Bit; Stereo


TOC of the extracted CD

     Track |   Start  |  Length  | Start sector | End sector 
    ---------------------------------------------------------
        1  |  0:00.00 |  4:40.71 |         0    |    21070   
        2  |  4:40.71 |  2:48.54 |     21071    |    33724   
        3  |  7:29.50 |  1:32.53 |     33725    |    40677   
        4  |  9:02.28 |  3:48.68 |     40678    |    57845   
        5  | 12:51.21 |  5:08.41 |     57846    |    80986   
        6  | 17:59.62 |  5:05.28 |     80987    |   103889   
        7  | 23:05.15 |  6:20.36 |    103890    |   132425   
        8  | 29:25.51 |  4:36.04 |    132426    |   153129   
        9  | 34:01.55 |  6:34.11 |    153130    |   182690   
       10  | 40:35.66 |  6:19.37 |    182691    |   211152   
       11  | 46:55.28 |  6:55.32 |    211153    |   242309   
       12  | 53:50.60 |  4:49.57 |    242310    |   264041   
       13  | 58:40.42 |  4:11.07 |    264042    |   282873   
       14  | 62:51.49 | 11:05.40 |    282874    |   332788   
       15  | 73:57.14 |  3:46.52 |    332789    |   349790   
       16  | 77:43.66 |  1:53.44 |    349791    |   358309   


Track  1

     Filename O:\Music\EAC Rips\01 - Hey You.wav

     Pre-gap length  0:00:02.00

     Peak level 94.1 %
     Extraction speed 1.9 X
     Track quality 100.0 %
     Test CRC A5BD055E
     Copy CRC A5BD055E
     Track not present in AccurateRip database
     Copy OK

Track  2

     Filename O:\Music\EAC Rips\02 - See Emily Play.wav

     Peak level 59.1 %
     Extraction speed 1.9 X
     Track quality 100.0 %
     Test CRC E9154352
     Copy CRC E9154352
     Track not present in AccurateRip database
     Copy OK

Track  3

     Filename O:\Music\EAC Rips\03 - The Happiest Days Of Our Lives.wav

     Peak level 87.8 %
     Extraction speed 1.8 X
     Track quality 100.0 %
     Test CRC D66FDB1D
     Copy CRC D66FDB1D
     Track not present in AccurateRip database
     Copy OK

Track  4

     Filename O:\Music\EAC Rips\04 - Another Brick In The Wall Part 2.wav

     Peak level 88.5 %
     Extraction speed 2.2 X
     Track quality 100.0 %
     Test CRC C6126925
     Copy CRC C6126925
     Track not present in AccurateRip database
     Copy OK

Track  5

     Filename O:\Music\EAC Rips\05 - Have A Cigar.wav

     Peak level 84.1 %
     Extraction speed 2.5 X
     Track quality 100.0 %
     Test CRC B190BDE3
     Copy CRC B190BDE3
     Track not present in AccurateRip database
     Copy OK

Track  6

     Filename O:\Music\EAC Rips\06 - Wish You Were Here.wav

     Peak level 83.6 %
     Extraction speed 2.6 X
     Track quality 100.0 %
     Test CRC 4FFCD08E
     Copy CRC 4FFCD08E
     Track not present in AccurateRip database
     Copy OK

Track  7

     Filename O:\Music\EAC Rips\07 - Time.wav

     Peak level 67.8 %
     Extraction speed 2.6 X
     Track quality 99.9 %
     Test CRC 8C2A5DE3
     Copy CRC 8C2A5DE3
     Track not present in AccurateRip database
     Copy OK

Track  8

     Filename O:\Music\EAC Rips\08 - The Great Gig In The Sky.wav

     Peak level 71.5 %
     Extraction speed 3.0 X
     Track quality 100.0 %
     Test CRC BEE0DB28
     Copy CRC BEE0DB28
     Track not present in AccurateRip database
     Copy OK

Track  9

     Filename O:\Music\EAC Rips\09 - Money.wav

     Peak level 69.2 %
     Extraction speed 1.4 X
     Track quality 100.0 %
     Test CRC 7DD23B87
     Copy CRC 7DD23B87
     Track not present in AccurateRip database
     Copy OK

Track 10

     Filename O:\Music\EAC Rips\10 - Comfortably Numb.wav

     Peak level 94.3 %
     Extraction speed 3.3 X
     Track quality 100.0 %
     Test CRC 97B0F1C3
     Copy CRC 97B0F1C3
     Track not present in AccurateRip database
     Copy OK

Track 11

     Filename O:\Music\EAC Rips\11 - High Hopes.wav

     Peak level 77.6 %
     Extraction speed 3.6 X
     Track quality 100.0 %
     Test CRC 44170AAE
     Copy CRC 44170AAE
     Track not present in AccurateRip database
     Copy OK

Track 12

     Filename O:\Music\EAC Rips\12 - Learning To Fly.wav

     Peak level 75.8 %
     Extraction speed 3.5 X
     Track quality 100.0 %
     Test CRC D336E8D3
     Copy CRC D336E8D3
     Track not present in AccurateRip database
     Copy OK

Track 13

     Filename O:\Music\EAC Rips\13 - The Fletcher Memorial Home.wav

     Peak level 93.5 %
     Extraction speed 3.6 X
     Track quality 100.0 %
     Test CRC D83FAB4A
     Copy CRC D83FAB4A
     Track not present in AccurateRip database
     Copy OK

Track 14

     Filename O:\Music\EAC Rips\14 - Shine On You Crazy Diamond.wav

     Peak level 86.1 %
     Extraction speed 4.1 X
     Track quality 100.0 %
     Test CRC C70E7348
     Copy CRC C70E7348
     Track not present in AccurateRip database
     Copy OK

Track 15

     Filename O:\Music\EAC Rips\15 - Brain Damage.wav

     Peak level 71.0 %
     Extraction speed 3.8 X
     Track quality 100.0 %
     Test CRC 8A27DD80
     Copy CRC 8A27DD80
     Track not present in AccurateRip database
     Copy OK

Track 16

     Filename O:\Music\EAC Rips\16 - Eclipse.wav

     Peak level 75.7 %
     Extraction speed 3.4 X
     Track quality 100.0 %
     Test CRC 3DD9BC84
     Copy CRC 3DD9BC84
     Track not present in AccurateRip database
     Copy OK


None of the tracks are present in the AccurateRip database

No errors occurred

End of status report

==== Log checksum 10E2D6815716B9DDB4115DBA137953057997C7075AA91B1A693FB47C1E8515C6 ====
